<svg xmlns="http://www.w3.org/2000/svg" viewBox="91.018 213.122 281.073 76.562">
  <g transform="matrix(1, 0, 0, 1, 82.038132, 169.596817)">
    <path d="M 55.1 80.7 C 54.8 80.7 54.3 80.4 54.3 80.4 C 54.2 80.5 54.4 80.2 54.5 80.2 C 55 80 55.5 79.8 56 79.6 C 59 78.3 61.3 76.4 62.1 73.2 C 63.2 68.5 62.1 64.5 58.3 61.4 C 55.9 59.5 53.1 58.7 50.1 58.5 C 47.2 58.3 26.9 58.6 24.9 58.6 L 24.9 64 L 31.7 64 C 32.4 64 32.9 64.6 33 65.3 C 33 66 32.4 66.6 31.7 66.6 L 24.9 66.6 L 24.9 69.7 L 29.1 69.7 C 29.8 69.7 30.3 70.3 30.4 71 C 30.4 71.7 29.8 72.3 29.1 72.3 L 24.9 72.3 L 24.9 74.8 L 31.8 74.8 C 32.5 74.8 33 75.4 33.1 76.1 C 33.1 76.8 32.5 77.4 31.8 77.4 L 24.9 77.4 L 24.9 80.2 L 28.9 80.2 C 29.6 80.2 30.1 80.8 30.2 81.5 C 30.2 82.2 29.6 82.8 28.9 82.8 L 25 82.8 L 25.1 85.5 C 25.1 85.5 26.3 85.5 27.6 85.5 L 31.5 85.5 C 32.2 85.5 32.7 86.1 32.8 86.8 C 32.8 87.5 32.2 88.1 31.5 88.1 L 25 88.1 L 25 90.6 L 29 90.6 C 29.7 90.6 30.2 91.2 30.3 91.9 C 30.3 92.6 29.7 93.2 29 93.2 L 24.8 93.2 L 24.8 96 L 31.4 96 C 32.1 96 32.6 96.6 32.7 97.3 C 32.7 98 32.1 98.6 31.4 98.6 L 24.8 98.6 L 24.8 105 C 26.8 105.4 52.608 105.138 54.259 104.847 C 59.653 103.898 63.4 99.7 64.1 94.2 C 65.1 86 60 81.3 55.1 80.7 Z M 39.5 76.6 C 39.5 75.7 39.5 67.8 39.5 66.3 C 40.9 66.3 45.4 66.2 46.4 66.3 C 47.3 66.4 48.2 66.5 49 66.8 C 53.4 68.5 53.2 73.8 50.6 75.9 C 49.6 76.7 48.6 77.2 47.4 77.4 C 46.6 77.6 40.3 77.4 39.5 77.4 L 39.5 76.6 Z M 53.8 92.6 C 53.3 94.6 51.7 95.8 49.7 96.3 C 49 96.5 48.3 96.6 47.6 96.6 C 47 96.7 46.4 96.7 45.8 96.7 C 43.8 96.7 41.8 96.7 39.8 96.7 C 39.7 96.4 39.6 84.8 39.7 84.4 C 42.5 84.4 45.1 84.3 47.7 84.4 C 48.8 84.4 49.8 84.8 50.8 85.3 C 53.9 87.2 54.5 90 53.8 92.6 Z" fill="#ffffff"/>
    <path d="M202.3,76.3c0.3-2,0-3.6,0.2-5.1c1.4-0.3,7.2-0.3,9-0.1c0,0.4,0.2,22.2,0.1,32.8c0,5.4-2.6,9.1-7.6,11.2   c-0.3,0.1-0.6,0.2-0.8,0.3c-1.9,0.6-3.8,1.1-5.8,1.1c-2.8,0.1-5.7,0.1-8.4-0.8c-2.4-0.7-4.5-1.9-6.2-3.8c-0.9-0.9-1.5-2-1.9-3.2   c-0.1-0.3,8.3-1.9,8.5-1.7c1.1,1.7,2.7,2.6,4.6,2.9c1.9,0.3,3.7,0.2,5.5-0.6c1.8-0.8,3-2.1,3-4.1c0.1-2.2,0.1-4.4,0.1-6.7   c0,0-0.1-0.1-0.2-0.2c-0.1,0.2-0.3,0.3-0.4,0.5c-2.3,3.6-5.7,4.7-9.8,4.5c-0.9,0-1.8-0.2-2.7-0.4c-4.7-1.2-7.5-4.3-9-8.8   c-0.5-1.5-0.8-3-0.8-4.6c-0.1-3-0.1-6,0.7-8.9c0.6-1.9,1.4-3.7,2.7-5.3c2.6-3.3,6-4.9,10.2-4.8c2,0,3.8,0.5,5.5,1.6   c1,0.7,1.8,1.4,2.4,2.4C201.4,75,201.8,75.5,202.3,76.3L202.3,76.3z M188.8,87.2c0,0,0.1,0,0.1,0c0,0.7,0,1.3,0.1,2   c0.2,1.7,0.7,3.3,1.7,4.7c1,1.5,2.4,2.3,4.2,2.4c0.5,0,1,0,1.4,0c2-0.1,3.6-1,4.6-2.7c0.4-0.7,0.8-1.4,1-2.1c0.9-3,0.8-5.9-0.1-8.9   c-0.2-0.7-0.6-1.4-1-2.1c-2.3-3.8-8.5-3.7-10.5,0.3c-0.4,0.8-0.8,1.6-1,2.5C189.1,84.6,189,85.9,188.8,87.2L188.8,87.2z" fill="#ffffff"/>
    <path d="M158.1,88.5c-0.6-3.3-2.7-5.6-5.5-7.3c-1.3-0.8-2.8-1.4-4.3-1.9c-2.2-0.7-4.5-1.2-6.8-1.8c-1.8-0.5-3.5-1-5.1-1.9   c-2.8-1.5-2.6-5.1-0.7-6.7c1-0.9,2.1-1.4,3.4-1.5c1.4-0.2,2.8-0.2,4.1,0c2.6,0.4,4.6,1.7,5.3,4.4c0,0.1,0.1,0.3,0.2,0.4h8.9   c0-2.4-0.7-4.5-2-6.4c-1.9-2.9-4.7-4.6-8-5.6c-4.3-1.2-8.6-1.2-12.8,0.1c-2.2,0.6-4.2,1.7-6,3.2c-3.7,3.3-4.8,7.5-3.8,12.3   c0.6,2.5,2.1,4.3,4.2,5.7c1.9,1.4,4.1,2.3,6.4,2.9c2.3,0.6,4.7,1.2,7,1.8c1.5,0.4,3,0.9,4.3,1.8c1.4,0.9,2,2.2,1.9,3.8   c-0.1,1.1-0.6,2.1-1.4,2.8c-0.9,0.9-2.1,1.4-3.3,1.7c-2,0.5-4.1,0.5-6.1-0.1c-2.8-0.7-4.7-2.3-5.3-5.3c0-0.2-0.1-0.4-0.1-0.5h-9   c-0.1,0.3,0.1,0.9,0.2,1.2c0.1,0.4,0.1,0.8,0.2,1.2c0.6,3.8,2.5,6.7,5.8,8.7c1.3,0.8,2.6,1.4,4,1.8h0.2c0.3,0,0.6,0.1,0.8,0.3   c0.9,0.2,1.8,0.4,2.7,0.5c2.6,0.4,5.3,0.4,7.9,0c2.5-0.3,5-1,7.1-2.3C157.4,98.8,159.2,94.1,158.1,88.5L158.1,88.5z" fill="#ffffff"/>
    <path d="M108.7,98.9v4.5l0,0c0,0,0,0,0,0h8.7c0.1-4.1,0.2-41.6-0.1-43.3c-1.4-0.3-7.4-0.4-8.9,0.2v2c0,4.3,0,8.5,0,12.8   c0,0.3,0.2,0.7-0.3,0.9c-0.2-0.2-0.3-0.5-0.5-0.7c-0.6-0.8-1.2-1.7-2-2.4c-1.8-1.7-4-2.4-6.4-2.4c-4.3-0.1-7.8,1.6-10.4,5.1   c-1.3,1.8-2.2,3.7-2.7,5.9c-0.8,3.4-0.8,6.9-0.3,10.4c0.4,2.8,1.4,5.3,3.1,7.6c1.7,2.2,3.8,3.6,6.4,4.4c1.7,0.5,3.3,0.5,5,0.4   c2.2-0.2,4.1-1,5.6-2.6c0.7-0.7,1.2-1.5,1.8-2.3C108.1,98.9,108.2,98.9,108.7,98.9L108.7,98.9z M96.6,94.3   c-0.5-0.8-0.9-1.6-1.1-2.4c-0.9-2.9-0.9-5.8-0.1-8.7c0.2-0.9,0.6-1.7,1.1-2.5c2.1-3.7,7.9-3.9,10.3-0.2c0.9,1.4,1.3,2.6,1.6,4.9   c0.4,3-0.1,5.3-0.4,6.1c-0.4,1.5-0.8,2.1-1.3,3C104.5,97.9,98.9,98,96.6,94.3L96.6,94.3z" fill="#ffffff"/>
    <path d="M249.2,103.7h-8.8c-0.5-0.6-0.4-20-0.5-20.9c-0.2-2.2-1.9-4.7-5.2-4.7c-0.8,0-1.6,0-2.3,0.2c-2.5,0.7-4,2.6-4.3,5.4   c-0.1,0.7-0.1,19.2-0.1,19.8c-1.4,0.3-6.9,0.4-9,0.1c-0.1-0.3-0.3-42.9,0.1-43.5c1.4-0.3,6.9-0.3,8.4,0c0.4,0.5,0.2,15.5,0.2,16.1   c0.5,0.2,0.6-0.2,0.7-0.4c0.9-1.7,2.1-3.1,3.8-4c1.3-0.7,2.6-1.1,4.1-1.2c1.5-0.1,3-0.2,4.5,0.2c4.4,1.1,7,3.9,8.1,8.3   C249.1,80.2,249.2,103.2,249.2,103.7L249.2,103.7z" fill="#ffffff"/>
    <path d="M258.2,77.7c-1,0-3.8,0-3.9,0c-0.2,0-0.3-0.4-0.3-0.6v-5.3c0-0.1,0-0.5,0-0.6c0-0.1,0-0.2,0-0.3c0.8,0,3.8,0,4.5,0   c0,0,0,0,0,0c0-0.3,0-6.9,0-7.4c0.2-0.2,0.3-0.3,0.4-0.3c2.8,0,5.6,0,8.6,0c0.1,0.4,0.2,0.7,0.2,1c0,1.7,0.1,6.2,0.1,6.7   c2,0.2,3.9,0,5.8,0.1c0.4,1.3,0.4,4.9,0.1,6.7c-0.1,0-5.9,0.1-5.9,0.1c0,0.1,0,13.8,0,15.6c0,0.1,0,0.1,0,0.1c0,0.1,0,0.1,0,0.2   c0.1,2.8,1.5,3,3.3,3.1c0.4,0,1.7-0.1,2-0.1c0.6,2.2,1,4.4,1.4,6.5c-0.9,0.7-1.9,0.8-2.8,0.9c-2.2,0.3-4.4,0.4-6.6-0.3   c-1.3-0.4-2.6-1-3.7-1.9c-1.6-1.4-2.4-3.1-2.7-5.2c-0.1-1-0.1-18.9-0.1-19C258.6,77.6,258.4,77.7,258.2,77.7L258.2,77.7z" fill="#ffffff"/>
    <path d="M 79.5 71.8 L 70.3 71.8 C 70.4 76.7 69.791 103.2 70.291 103.8 L 79.204 103.8 C 79.204 103.1 79.5 79.2 79.5 73 C 79.5 72.5 79.5 72.1 79.5 71.8 Z" fill="#ffffff"/>
    <path d="M173.3,102.7V71h-8.8c0,0.8-0.1,1.4-0.1,2c0,9.6,0,19.1,0,28.7c0,0.3,0,0.7,0,1L173.3,102.7L173.3,102.7z" fill="#ffffff"/>
    <path d="M75,66.7c-3.3-0.1-5.5-2.7-4.8-5.7c0.2-0.7,0.5-1.3,1-1.9c2-2.2,5.7-2.1,7.5,0c1.6,1.8,1.6,4.3-0.1,6   C77.6,66.2,76.3,66.8,75,66.7L75,66.7z" fill="#ffffff"/>
    <path d="M168.9,66.7c-1.2,0.1-2.2-0.3-3.2-1.1c-1.5-1.2-2-2.7-1.6-4.5c0.4-1.8,1.6-3,3.3-3.4c1.6-0.4,3.1-0.3,4.5,0.7   c1.9,1.5,2.2,3,1.8,4.9c-0.4,1.7-2.3,3.2-4.1,3.3C169.4,66.7,169.2,66.7,168.9,66.7L168.9,66.7z" fill="#ffffff"/>
    <polygon points="156.8,72.2 152.7,70.2 149.8,72.2  " fill="#ffffff"/>
  </g>
</svg>